<svg width="14" height="16" viewBox="0 0 14 16" fill="none" xmlns="http://www.w3.org/2000/svg">
<path d="M12.3333 6C12.0872 6 11.8564 6.06706 11.6581 6.18391C11.5836 5.51856 11.0178 5 10.3333 5C10.0077 5 9.70856 5.11784 9.47616 5.31413C9.24275 4.92644 8.81794 4.66666 8.33325 4.66666C8.09075 4.66666 7.86288 4.73175 7.6666 4.84569V1.33334C7.66656 0.597969 7.0686 0 6.33325 0C5.59791 0 4.99991 0.597969 4.99991 1.33334V10.2546C4.99991 10.4225 4.88922 10.5088 4.84169 10.5381C4.79416 10.5674 4.66622 10.6276 4.51747 10.5527L2.37685 9.48244C2.18185 9.38478 1.96344 9.33334 1.74535 9.33334C0.966689 9.33334 0.333252 9.96681 0.333252 10.7455V11C0.333252 11.0924 0.371658 11.1807 0.439033 11.2438L4.28638 14.8346C5.09169 15.5859 6.14185 16 7.24306 16H9.33322C11.7225 16 13.6666 14.056 13.6666 11.6667V7.33334C13.6666 6.59797 13.0686 6 12.3333 6ZM12.9999 11.6667C12.9999 13.6885 11.3551 15.3333 9.33325 15.3333H7.2431C6.31144 15.3333 5.42278 14.9831 4.74147 14.347L0.999908 10.8552V10.7455C0.999908 10.3343 1.33422 10 1.74535 10C1.86025 10 1.97581 10.0273 2.07869 10.0788L4.21931 11.1491C4.5315 11.3057 4.89541 11.2884 5.19228 11.1055C5.48916 10.9219 5.66656 10.6038 5.66656 10.2546V1.33334C5.66656 0.965844 5.96572 0.666687 6.33322 0.666687C6.70072 0.666687 6.99988 0.965844 6.99988 1.33334V6.33334C6.99988 6.51759 7.14897 6.66669 7.33322 6.66669C7.51747 6.66669 7.66656 6.51759 7.66656 6.33334V6C7.66656 5.6325 7.96572 5.33334 8.33322 5.33334C8.70072 5.33334 8.99988 5.6325 8.99988 6V6.33334C8.99988 6.334 8.99988 6.33466 8.99988 6.33531V6.33563C9.00119 6.51856 9.14994 6.66669 9.33322 6.66669C9.51747 6.66669 9.66656 6.51759 9.66656 6.33334V6.32812C9.66916 5.96322 9.968 5.66666 10.3332 5.66666C10.7007 5.66666 10.9999 5.96581 10.9999 6.33331V7.33331C10.9999 7.51756 11.149 7.66666 11.3332 7.66666C11.5175 7.66666 11.6666 7.51756 11.6666 7.33331C11.6666 6.96581 11.9657 6.66666 12.3332 6.66666C12.7007 6.66666 12.9999 6.96581 12.9999 7.33334V11.6667Z" fill="black"/>
</svg>
